<svg xmlns="http://www.w3.org/2000/svg" width="227" height="226" fill="none"><path fill="#F0F1F2" d="M187.5 110.086c0 40.885-33.115 74-74 74s-74-33.115-74-74 33.115-74 74-74 74 33.115 74 74Z"/><g filter="url(#a)"><path fill="#fff" d="M58.5 48.086a3 3 0 0 1 3-3h38a3 3 0 0 1 3 3v38a3 3 0 0 1-3 3h-38a3 3 0 0 1-3-3v-38Z"/></g><g filter="url(#b)"><path fill="#fff" d="M187.5 57.086c0-2.21-1.765-4-3.941-4h-59.118c-2.176 0-3.941 1.79-3.941 4v60c0 2.21 1.765 4 3.941 4h59.118c2.176 0 3.941-1.79 3.941-4v-60Z"/></g><path fill="#108060" d="M73.5 80.086V66.624c0-1.723.7-3.338 1.885-4.576l.538-.539c1.185-1.185 1.577-2.7 1.577-4.423v-5h6v5c0 1.723.392 3.184 1.577 4.423l.538.538a6.391 6.391 0 0 1 1.885 4.577v13.462h-14Z"/><path fill="#00735C" d="M87.5 72.086h-14v9h14v-9Z"/><g filter="url(#c)"><path fill="#fff" d="M44.5 108.054c0-2.191 1.797-3.968 4.013-3.968h79.974c2.216 0 4.013 1.777 4.013 3.968v79.065c0 2.191-1.797 3.967-4.013 3.967H48.513c-2.216 0-4.013-1.776-4.013-3.967v-79.065Z"/></g><path fill="#DE6A5A" d="M68.374 177.085H91.83l-.007-.047.01.047h19.191l6.397-42.143h-57.14l8.093 42.143Z"/><path fill="#CD5747" d="m100.801 134.942-8.967 42.143H91.5l-6.102-42.143h15.403Z"/><path fill="#EC856F" d="M117.424 134.944H85.437l6.398-16.858h19.192l6.397 16.858Z"/><path fill="#7FBEC6" d="m173.47 104.076-3.44-19.22H133.5v6.96c0 4.87 1.58 9.41 4.98 12.26h34.99Z"/><path fill="#5BA7B1" d="M155.09 84.856H133.5v5.23h20.67l.92-5.23Z"/><path fill="#3C8B96" d="m155.092 84.856-.92 5.23h10.88v-5.23h-9.96Z"/><path fill="#5BA7B1" d="M151.91 104.076h8.16c3.4-2.85 4.98-7.39 4.98-12.31v-1.68h-10.87l-2.27 13.99ZM155.078 84.856h14.94l10.43-10.82h-34.87l9.5 10.82Z"/><path fill="#7FBEC6" d="M171.69 66.086h-18.27l-7.85 7.95h34.87l-8.75-7.95Z"/><defs><filter id="a" width="54" height="54" x="53.5" y="41.086" color-interpolation-filters="sRGB" filterUnits="userSpaceOnUse"><feFlood flood-opacity="0" result="BackgroundImageFix"/><feColorMatrix in="SourceAlpha" result="hardAlpha" values="0 0 0 0 0 0 0 0 0 0 0 0 0 0 0 0 0 0 127 0"/><feOffset dy="1"/><feGaussianBlur stdDeviation="2.5"/><feColorMatrix values="0 0 0 0 0 0 0 0 0 0 0 0 0 0 0 0 0 0 0.3 0"/><feBlend in2="BackgroundImageFix" result="effect1_dropShadow_8144_221700"/><feBlend in="SourceGraphic" in2="effect1_dropShadow_8144_221700" result="shape"/></filter><filter id="b" width="77" height="78" x="115.5" y="49.086" color-interpolation-filters="sRGB" filterUnits="userSpaceOnUse"><feFlood flood-opacity="0" result="BackgroundImageFix"/><feColorMatrix in="SourceAlpha" result="hardAlpha" values="0 0 0 0 0 0 0 0 0 0 0 0 0 0 0 0 0 0 127 0"/><feOffset dy="1"/><feGaussianBlur stdDeviation="2.5"/><feColorMatrix values="0 0 0 0 0 0 0 0 0 0 0 0 0 0 0 0 0 0 0.3 0"/><feBlend in2="BackgroundImageFix" result="effect1_dropShadow_8144_221700"/><feBlend in="SourceGraphic" in2="effect1_dropShadow_8144_221700" result="shape"/></filter><filter id="c" width="108" height="107" x="34.5" y="96.086" color-interpolation-filters="sRGB" filterUnits="userSpaceOnUse"><feFlood flood-opacity="0" result="BackgroundImageFix"/><feColorMatrix in="SourceAlpha" result="hardAlpha" values="0 0 0 0 0 0 0 0 0 0 0 0 0 0 0 0 0 0 127 0"/><feOffset dy="2"/><feGaussianBlur stdDeviation="5"/><feColorMatrix values="0 0 0 0 0 0 0 0 0 0 0 0 0 0 0 0 0 0 0.3 0"/><feBlend in2="BackgroundImageFix" result="effect1_dropShadow_8144_221700"/><feBlend in="SourceGraphic" in2="effect1_dropShadow_8144_221700" result="shape"/></filter></defs></svg>
